<svg width="100%" height="100%" viewBox="0 0 800 800" xmlns="http://www.w3.org/2000/svg">
  <defs>
    <linearGradient id="grad1" x1="0%" y1="0%" x2="100%" y2="100%">
      <stop offset="0%" style="stop-color:#3B82F6;stop-opacity:0.1" />
      <stop offset="100%" style="stop-color:#2563EB;stop-opacity:0.2" />
    </linearGradient>
  </defs>
  <rect width="100%" height="100%" fill="url(#grad1)" />
  <g stroke="#3B82F6" stroke-width="1" stroke-opacity="0.2">
    <!-- Horizontal lines -->
    <line x1="0" y1="100" x2="800" y2="100" />
    <line x1="0" y1="200" x2="800" y2="200" />
    <line x1="0" y1="300" x2="800" y2="300" />
    <line x1="0" y1="400" x2="800" y2="400" />
    <line x1="0" y1="500" x2="800" y2="500" />
    <line x1="0" y1="600" x2="800" y2="600" />
    <line x1="0" y1="700" x2="800" y2="700" />

    <!-- Vertical lines -->
    <line x1="100" y1="0" x2="100" y2="800" />
    <line x1="200" y1="0" x2="200" y2="800" />
    <line x1="300" y1="0" x2="300" y2="800" />
    <line x1="400" y1="0" x2="400" y2="800" />
    <line x1="500" y1="0" x2="500" y2="800" />
    <line x1="600" y1="0" x2="600" y2="800" />
    <line x1="700" y1="0" x2="700" y2="800" />
  </g>

  <!-- Circuit patterns -->
  <g stroke="#3B82F6" stroke-width="1.5">
    <!-- Circuit 1 -->
    <path d="M50,50 L150,50 L150,150 L250,150 L250,250" fill="none" />
    <circle cx="50" cy="50" r="5" fill="#3B82F6" opacity="0.5" />
    <circle cx="250" cy="250" r="5" fill="#3B82F6" opacity="0.5" />

    <!-- Circuit 2 -->
    <path d="M350,50 L450,50 L450,250 L550,250 L550,150" fill="none" />
    <circle cx="350" cy="50" r="5" fill="#3B82F6" opacity="0.5" />
    <circle cx="550" cy="150" r="5" fill="#3B82F6" opacity="0.5" />

    <!-- Circuit 3 -->
    <path d="M650,50 L650,150 L750,150 L750,350" fill="none" />
    <circle cx="650" cy="50" r="5" fill="#3B82F6" opacity="0.5" />
    <circle cx="750" cy="350" r="5" fill="#3B82F6" opacity="0.5" />

    <!-- Circuit 4 -->
    <path d="M50,350 L250,350 L250,550 L350,550" fill="none" />
    <circle cx="50" cy="350" r="5" fill="#3B82F6" opacity="0.5" />
    <circle cx="350" cy="550" r="5" fill="#3B82F6" opacity="0.5" />

    <!-- Circuit 5 -->
    <path d="M450,350 L450,450 L550,450 L550,650 L650,650" fill="none" />
    <circle cx="450" cy="350" r="5" fill="#3B82F6" opacity="0.5" />
    <circle cx="650" cy="650" r="5" fill="#3B82F6" opacity="0.5" />

    <!-- Circuit 6 -->
    <path d="M50,650 L150,650 L150,550 L250,550" fill="none" />
    <circle cx="50" cy="650" r="5" fill="#3B82F6" opacity="0.5" />
    <circle cx="250" cy="550" r="5" fill="#3B82F6" opacity="0.5" />

    <!-- Circuit 7 -->
    <path d="M350,750 L450,750 L450,650 L550,650" fill="none" />
    <circle cx="350" cy="750" r="5" fill="#3B82F6" opacity="0.5" />
    <circle cx="550" cy="650" r="5" fill="#3B82F6" opacity="0.5" />

    <!-- Circuit 8 -->
    <path d="M650,750 L750,750 L750,550" fill="none" />
    <circle cx="650" cy="750" r="5" fill="#3B82F6" opacity="0.5" />
    <circle cx="750" cy="550" r="5" fill="#3B82F6" opacity="0.5" />
  </g>
</svg>
